<svg xmlns="http://www.w3.org/2000/svg" xmlns:xlink="http://www.w3.org/1999/xlink" width="500" zoomAndPan="magnify" viewBox="0 0 375 374.999991" height="500" preserveAspectRatio="xMidYMid meet" version="1.0"><defs><clipPath id="be5d12510e"><path d="M 9.925781 21.816406 L 364.785156 21.816406 L 364.785156 337.566406 L 9.925781 337.566406 Z M 9.925781 21.816406 " clip-rule="nonzero"/></clipPath></defs><g clip-path="url(#be5d12510e)"><path fill="#daf800" d="M 96.066406 307.417969 C -126.507812 140.453125 136.332031 -54.457031 276.847656 52.320312 C 504.050781 224.964844 235.289062 411.859375 96.066406 307.417969 Z M 96.066406 307.417969 " fill-opacity="1" fill-rule="nonzero"/></g><path fill="#0a0a0c" d="M 314.730469 169.546875 C 312.46875 172.335938 303.320312 182.96875 288.40625 184.519531 C 276.851562 185.71875 267.925781 180.835938 263.226562 178.265625 C 257.929688 175.359375 253.167969 171.566406 249.144531 167.046875 C 248.601562 166.222656 248.089844 165.472656 247.636719 164.914062 C 247.636719 164.914062 245.785156 161.511719 245.039062 159.945312 C 242.421875 154.539062 238.644531 149.785156 233.980469 146.027344 C 226.8125 139.238281 217.304688 135.519531 207.460938 135.664062 L 207.382812 135.667969 L 207.347656 135.664062 L 207.324219 135.664062 C 206.054688 135.664062 204.820312 135.738281 203.601562 135.847656 C 203.441406 135.863281 203.285156 135.882812 203.125 135.898438 C 201.523438 136.054688 199.933594 136.3125 198.363281 136.667969 C 194.066406 137.585938 189.96875 139.277344 186.265625 141.652344 L 186.820312 137.800781 C 186.925781 137.042969 187.011719 136.453125 187.085938 135.976562 L 187.113281 135.835938 L 187.136719 135.695312 L 167.496094 135.695312 L 162.375 172.945312 C 159.167969 176.019531 155.253906 178.242188 150.980469 179.410156 L 156.992188 136.664062 L 156.992188 135.695312 L 137.3125 135.695312 L 130.503906 185.335938 C 130.160156 188.703125 128.964844 191.929688 127.03125 194.703125 C 125.097656 197.472656 122.492188 199.703125 119.460938 201.175781 C 118.949219 201.371094 118.453125 201.582031 117.90625 201.753906 C 115.851562 202.382812 113.726562 202.761719 111.578125 202.882812 C 101.894531 202.882812 96.230469 196.132812 97.722656 185.785156 L 104.425781 137.496094 L 84.757812 137.496094 L 78.050781 185.484375 C 75.070312 206.929688 85.351562 220.878906 104.875 220.878906 C 114.410156 220.878906 122.753906 217.429688 128.121094 210.078125 L 126.925781 219.078125 L 145.402344 219.078125 L 148.308594 198.433594 C 152.101562 197.527344 155.808594 196.273438 159.382812 194.691406 L 151.300781 253.441406 C 152.519531 253.441406 153.457031 253.441406 154.332031 253.441406 L 155.191406 253.441406 C 155.476562 253.441406 155.761719 253.441406 156.058594 253.441406 L 169.167969 253.441406 C 171.050781 240.785156 177.460938 198.988281 179.34375 186.332031 C 179.648438 184.289062 179.96875 182.222656 180.359375 180.179688 L 179.484375 186.332031 C 180.453125 179.808594 181.496094 173.078125 184.949219 167.46875 C 186.738281 164.601562 189.097656 162.132812 191.875 160.222656 C 194.652344 158.308594 197.789062 156.992188 201.09375 156.351562 C 207.433594 155.226562 214.765625 156.171875 222.304688 163.585938 C 222.464844 163.871094 222.628906 164.148438 222.777344 164.441406 C 222.554688 164.476562 222.296875 164.519531 221.964844 164.578125 C 219.769531 164.960938 217.601562 165.492188 215.476562 166.171875 C 208.464844 168.324219 198.402344 173.0625 192.414062 182.96875 C 192.023438 183.5625 191.648438 184.183594 191.289062 184.816406 L 191.289062 184.820312 C 190.6875 185.859375 190.144531 186.933594 189.664062 188.035156 C 187.425781 192.785156 186.589844 198.082031 187.25 203.292969 C 187.257812 203.363281 187.277344 203.46875 187.289062 203.546875 C 187.3125 203.707031 187.335938 203.867188 187.367188 204.058594 C 187.394531 204.21875 187.425781 204.390625 187.460938 204.574219 C 187.488281 204.734375 187.519531 204.894531 187.554688 205.070312 C 187.601562 205.300781 187.652344 205.535156 187.710938 205.789062 C 187.742188 205.921875 187.777344 206.0625 187.8125 206.203125 C 188.082031 207.277344 188.421875 208.328125 188.832031 209.355469 C 188.894531 209.511719 188.953125 209.664062 189.019531 209.824219 C 189.167969 210.171875 189.328125 210.519531 189.5 210.878906 C 189.589844 211.054688 189.6875 211.234375 189.78125 211.417969 C 189.964844 211.773438 190.152344 212.128906 190.367188 212.492188 C 191.058594 213.753906 191.886719 214.9375 192.839844 216.015625 C 199.011719 222.953125 208.117188 223.175781 211.136719 223.195312 C 211.210938 223.195312 211.289062 223.183594 211.363281 223.183594 L 211.410156 223.183594 C 217.261719 223.222656 223.015625 221.648438 228.042969 218.632812 C 238.757812 212.121094 245.371094 200.261719 248.367188 188.027344 C 253.972656 193.039062 260.589844 196.769531 267.765625 198.964844 C 274.941406 201.15625 282.5 201.761719 289.929688 200.734375 C 297.359375 199.707031 304.476562 197.074219 310.796875 193.015625 C 317.121094 188.957031 322.492188 183.566406 326.546875 177.21875 C 322.605469 174.660156 318.667969 172.101562 314.730469 169.546875 Z M 210.78125 187.488281 C 211.703125 186.710938 212.667969 185.988281 213.671875 185.328125 C 214.71875 184.636719 215.800781 184.003906 216.914062 183.429688 L 217.035156 183.367188 C 217.226562 183.269531 217.390625 183.1875 217.484375 183.140625 C 221.3125 181.429688 225.425781 180.464844 229.609375 180.292969 C 229.996094 180.28125 230.367188 180.28125 230.730469 180.285156 C 230.847656 180.289062 230.957031 180.292969 231.070312 180.296875 C 231.316406 180.304688 231.558594 180.3125 231.789062 180.324219 C 231.898438 180.332031 232 180.339844 232.105469 180.347656 C 232.339844 180.363281 232.566406 180.378906 232.78125 180.402344 L 232.976562 180.417969 C 233.230469 180.445312 233.476562 180.472656 233.6875 180.5 C 235.234375 180.792969 236.761719 181.183594 238.261719 181.671875 C 235.023438 181.257812 231.757812 181.109375 228.5 181.234375 C 228.113281 181.253906 227.730469 181.335938 227.367188 181.476562 C 226.914062 184.625 226.179688 187.726562 225.171875 190.746094 C 223.925781 193.933594 222.125 196.875 219.859375 199.429688 C 218.472656 201.042969 216.769531 202.347656 214.855469 203.265625 C 214.023438 203.640625 213.136719 203.878906 212.230469 203.972656 L 212.144531 203.980469 C 212.101562 203.984375 212.0625 203.992188 212.019531 203.992188 C 211.6875 204.003906 211.355469 203.984375 211.027344 203.945312 C 210.949219 203.9375 210.875 203.929688 210.796875 203.917969 C 209.484375 203.703125 208.257812 203.113281 207.269531 202.214844 C 204.96875 200.207031 205.546875 195.660156 205.554688 195.601562 C 205.917969 193.648438 206.765625 191.820312 208.023438 190.285156 C 208.847656 189.273438 209.769531 188.339844 210.769531 187.5 Z M 210.78125 187.488281 " fill-opacity="1" fill-rule="nonzero"/></svg>